<svg width="175" height="258" viewBox="0 0 175 258" fill="none" xmlns="http://www.w3.org/2000/svg">
<path d="M49.4793 89.2746H52.7811V89.2746L49.4793 89.2746ZM62.48 76.3503L62.4735 79.6522H62.48V76.3503ZM112.546 76.3503V79.6522V76.3503ZM135.845 111.441L139.147 111.444V111.441H135.845ZM115.197 126.677V129.978H118.499V126.677H115.197ZM59.7779 126.677H56.476V129.978H59.7779V126.677ZM39.1297 151.484H35.8278V154.786H39.1297V151.484ZM135.819 151.484V154.786H139.119L139.121 151.486L135.819 151.484ZM160.852 88.5127H164.154V88.5092L160.852 88.5127ZM158.15 82.5711L160.325 80.087L160.317 80.0797L158.15 82.5711ZM92.4326 25.4143L90.2646 27.9048L90.2657 27.9058L92.4326 25.4143ZM82.032 25.4143L84.1989 27.9058L84.2 27.9048L82.032 25.4143ZM16.3146 82.5711L14.1477 80.0797L14.1394 80.087L16.3146 82.5711ZM13.6125 88.5127L10.3106 88.5092V88.5127H13.6125ZM165.414 73.3817C166.79 74.5789 168.876 74.4342 170.073 73.0586C171.27 71.6831 171.125 69.5974 169.75 68.4003L165.414 73.3817ZM93.2994 6.24378L95.467 3.75305C95.4634 3.74993 95.4598 3.74682 95.4562 3.74372L93.2994 6.24378ZM87.2578 4V0.698113V4ZM81.2163 6.24378L79.0594 3.74372C79.0559 3.7468 79.0523 3.74988 79.0488 3.75298L81.2163 6.24378ZM59.8288 24.8558H56.527C56.527 26.1498 57.2828 27.3245 58.4604 27.8608C59.638 28.397 61.0203 28.196 61.9964 27.3466L59.8288 24.8558ZM59.2935 14.166V10.8641V14.166ZM38.7218 43.1123L40.8884 45.6039C41.6096 44.9768 42.0237 44.068 42.0237 43.1123H38.7218ZM5.25147 67.8408C3.87537 69.0374 3.72985 71.123 4.92643 72.4991C6.12302 73.8752 8.20859 74.0207 9.58468 72.8241L5.25147 67.8408ZM175 148.182H0V154.786H175V148.182ZM52.7811 105.779V89.2746H46.1774V105.779H52.7811ZM52.7811 89.2746C52.7811 88.0111 53.0313 86.7597 53.5175 85.592L47.4212 83.0534C46.6001 85.0251 46.1774 87.1393 46.1774 89.2746L52.7811 89.2746ZM53.5175 85.592C54.0037 84.4244 54.7167 83.363 55.6165 82.4685L50.9607 77.7852C49.4453 79.2916 48.2423 81.0816 47.4212 83.0534L53.5175 85.592ZM55.6165 82.4685C56.5163 81.5739 57.585 80.8642 58.7616 80.3808L56.2519 74.2725C54.2741 75.0851 52.476 76.2788 50.9607 77.7852L55.6165 82.4685ZM58.7616 80.3808C59.9382 79.8974 61.1996 79.6497 62.4735 79.6522L62.4864 73.0484C60.3482 73.0442 58.2296 73.4599 56.2519 74.2725L58.7616 80.3808ZM62.48 79.6522H112.546V73.0484H62.48V79.6522ZM112.546 79.6522C115.115 79.6522 117.577 80.6692 119.39 82.4752L124.051 77.7964C120.997 74.7549 116.858 73.0484 112.546 73.0484V79.6522ZM119.39 82.4752C121.203 84.2808 122.219 86.7268 122.219 89.2746H128.823C128.823 84.9669 127.105 80.8384 124.051 77.7964L119.39 82.4752ZM122.219 89.2746V105.779H128.823V89.2746H122.219ZM139.147 111.441C139.147 109.066 138.199 106.792 136.518 105.116L131.857 109.795C132.298 110.234 132.543 110.826 132.543 111.441H139.147ZM136.518 105.116C134.836 103.442 132.558 102.503 130.186 102.503V109.106C130.815 109.106 131.416 109.356 131.857 109.795L136.518 105.116ZM130.186 102.503H120.856V109.106H130.186V102.503ZM120.856 102.503C118.483 102.503 116.205 103.442 114.524 105.116L119.184 109.795C119.626 109.356 120.227 109.106 120.856 109.106V102.503ZM114.524 105.116C112.842 106.792 111.895 109.066 111.895 111.441H118.499C118.499 110.826 118.744 110.234 119.184 109.795L114.524 105.116ZM111.895 111.441V126.677H118.499V111.441H111.895ZM115.197 123.375H59.7779V129.978H115.197V123.375ZM63.0797 126.677V111.441H56.476V126.677H63.0797ZM63.0797 111.441C63.0797 109.066 62.1324 106.792 60.4505 105.116L55.7901 109.795C56.2309 110.234 56.476 110.826 56.476 111.441H63.0797ZM60.4505 105.116C58.7691 103.442 56.4913 102.503 54.1187 102.503V109.106C54.7479 109.106 55.3489 109.356 55.7901 109.795L60.4505 105.116ZM54.1187 102.503H44.7888V109.106H54.1187V102.503ZM44.7888 102.503C42.4161 102.503 40.1384 103.442 38.457 105.116L43.1174 109.795C43.5586 109.356 44.1596 109.106 44.7888 109.106V102.503ZM38.457 105.116C36.7751 106.792 35.8278 109.066 35.8278 111.441H42.4315C42.4315 110.826 42.6767 110.234 43.1174 109.795L38.457 105.116ZM35.8278 111.441V151.484H42.4315V111.441H35.8278ZM39.1297 154.786H135.819V148.182H39.1297V154.786ZM139.121 151.486L139.147 111.444L132.543 111.439L132.517 151.482L139.121 151.486ZM164.154 151.484V88.5127H157.55V151.484H164.154ZM164.154 88.5092C164.152 86.9137 163.81 85.3376 163.149 83.8854L157.138 86.6192C157.409 87.2159 157.55 87.8623 157.55 88.5161L164.154 88.5092ZM163.149 83.8854C162.489 82.4332 161.526 81.1384 160.325 80.087L155.975 85.0552C156.47 85.489 156.866 86.0224 157.138 86.6192L163.149 83.8854ZM160.317 80.0797L94.5995 22.9229L90.2657 27.9058L155.983 85.0625L160.317 80.0797ZM94.6006 22.9239C92.5582 21.1459 89.9401 20.1681 87.2323 20.1681V26.7719C88.3497 26.7719 89.4269 27.1755 90.2646 27.9048L94.6006 22.9239ZM87.2323 20.1681C84.5246 20.1681 81.9065 21.1459 79.864 22.9239L84.2 27.9048C85.0378 27.1755 86.115 26.7719 87.2323 26.7719V20.1681ZM79.8652 22.9229L14.1478 80.0797L18.4815 85.0625L84.1989 27.9058L79.8652 22.9229ZM14.1394 80.087C12.9387 81.1384 11.9759 82.4332 11.3155 83.8854L17.3269 86.6192C17.5983 86.0223 17.9945 85.489 18.4899 85.0552L14.1394 80.087ZM11.3155 83.8854C10.6551 85.3376 10.3123 86.9137 10.3106 88.5092L16.9144 88.5161C16.9151 87.8623 17.0555 87.2159 17.3269 86.6192L11.3155 83.8854ZM10.3106 88.5127V151.484H16.9144V88.5127H10.3106ZM169.75 68.4003L95.467 3.75305L91.1317 8.73451L165.414 73.3817L169.75 68.4003ZM95.4562 3.74372C93.1781 1.77829 90.2674 0.698113 87.2578 0.698113V7.30189C88.6866 7.30189 90.0657 7.81487 91.1425 8.74385L95.4562 3.74372ZM87.2578 0.698113C84.2483 0.698113 81.3376 1.7783 79.0594 3.74372L83.3732 8.74385C84.45 7.81486 85.829 7.30189 87.2578 7.30189V0.698113ZM79.0488 3.75298L57.6613 22.365L61.9964 27.3466L83.3839 8.73458L79.0488 3.75298ZM63.1307 24.8558V14.6991H56.527V24.8558H63.1307ZM63.1307 14.6991C63.1307 14.1925 63.0303 13.6925 62.8369 13.2273L56.7393 15.763C56.5997 15.4272 56.527 15.0656 56.527 14.6991H63.1307ZM62.8369 13.2273C62.6429 12.7609 62.359 12.3382 62.0023 11.9828L57.3419 16.6616C57.0845 16.4053 56.8795 16.1001 56.7393 15.763L62.8369 13.2273ZM62.0023 11.9828C61.6458 11.6278 61.2229 11.3462 60.7577 11.1543L58.239 17.2589C57.9038 17.1206 57.5989 16.9176 57.3419 16.6616L62.0023 11.9828ZM60.7577 11.1543C60.2935 10.9628 59.796 10.8641 59.2935 10.8641V17.4679C58.9316 17.4679 58.5734 17.3968 58.239 17.2589L60.7577 11.1543ZM59.2935 10.8641H39.2571V17.4679H59.2935V10.8641ZM39.2571 10.8641C38.2428 10.8641 37.2684 11.2656 36.5484 11.9828L41.2088 16.6616C40.6895 17.1788 39.9874 17.4679 39.2571 17.4679V10.8641ZM36.5484 11.9828C35.828 12.7004 35.4199 13.6768 35.4199 14.6991H42.0237C42.0237 15.4385 41.7284 16.144 41.2088 16.6616L36.5484 11.9828ZM35.4199 14.6991V43.1123H42.0237V14.6991H35.4199ZM36.5552 40.6207L5.25147 67.8408L9.58468 72.8241L40.8884 45.6039L36.5552 40.6207Z" fill="#F4B5A4"/>
<path d="M40.3979 172.73V214.281H32.0405V196.213H14.2664V214.281H5.96787V172.73H14.2664V189.562H32.0405V172.73H40.3979ZM67.4057 172.141C71.2901 172.141 74.8018 173.044 77.9407 174.849C81.1189 176.653 83.6104 179.184 85.4153 182.441C87.2594 185.658 88.1814 189.307 88.1814 193.388C88.1814 197.468 87.2594 201.137 85.4153 204.394C83.6104 207.65 81.1189 210.181 77.9407 211.986C74.8018 213.791 71.2901 214.693 67.4057 214.693C63.5213 214.693 59.99 213.791 56.8119 211.986C53.673 210.181 51.1815 207.65 49.3373 204.394C47.5325 201.137 46.63 197.468 46.63 193.388C46.63 189.307 47.5325 185.658 49.3373 182.441C51.1815 179.184 53.673 176.653 56.8119 174.849C59.99 173.044 63.5213 172.141 67.4057 172.141ZM67.4057 179.792C64.9731 179.792 62.8347 180.342 60.9906 181.44C59.1465 182.539 57.6947 184.128 56.6353 186.208C55.6152 188.248 55.1051 190.641 55.1051 193.388C55.1051 196.134 55.6152 198.547 56.6353 200.627C57.6947 202.667 59.1465 204.237 60.9906 205.335C62.8347 206.434 64.9731 206.983 67.4057 206.983C69.8384 206.983 71.9768 206.434 73.8209 205.335C75.665 204.237 77.0971 202.667 78.1173 200.627C79.1767 198.547 79.7064 196.134 79.7064 193.388C79.7064 190.641 79.1767 188.248 78.1173 186.208C77.0971 184.128 75.665 182.539 73.8209 181.44C71.9768 180.342 69.8384 179.792 67.4057 179.792ZM139.211 173.201V214.281H130.971V185.619L120.436 214.281H113.256L102.721 185.737V214.281H94.4223V173.201H104.486L116.964 204.099L129.205 173.201H139.211ZM155.023 179.322V190.092H169.737V196.448H155.023V207.631H171.503V214.281H146.725V172.73H171.503V179.322H155.023Z" fill="#F4B5A4"/>
<path d="M13.8989 249.711H6.28893V225.051H14.2361C16.6282 225.051 18.6752 225.544 20.377 226.532C22.0789 227.511 23.3833 228.92 24.2904 230.758C25.1975 232.588 25.6511 234.78 25.6511 237.333C25.6511 239.901 25.1935 242.113 24.2784 243.967C23.3632 245.814 22.0307 247.234 20.2807 248.23C18.5307 249.217 16.4035 249.711 13.8989 249.711ZM9.27513 247.062H13.7063C15.7452 247.062 17.435 246.669 18.7756 245.882C20.1162 245.095 21.1156 243.975 21.7738 242.522C22.4321 241.069 22.7612 239.34 22.7612 237.333C22.7612 235.342 22.4361 233.628 21.7859 232.191C21.1356 230.746 20.1643 229.638 18.8719 228.868C17.5795 228.089 15.97 227.7 14.0434 227.7H9.27513V247.062ZM43.2061 249.711V225.051H58.0889V227.7H46.1923V236.032H57.3183V238.681H46.1923V247.062H58.2815V249.711H43.2061ZM95.8609 232.757H92.8747C92.6981 231.898 92.3891 231.144 91.9476 230.493C91.5141 229.843 90.9843 229.297 90.3581 228.856C89.74 228.406 89.0537 228.069 88.2991 227.844C87.5445 227.619 86.7578 227.507 85.939 227.507C84.4459 227.507 83.0933 227.884 81.8812 228.639C80.6771 229.394 79.7178 230.505 79.0033 231.974C78.2969 233.443 77.9437 235.246 77.9437 237.381C77.9437 239.516 78.2969 241.318 79.0033 242.787C79.7178 244.256 80.6771 245.368 81.8812 246.123C83.0933 246.877 84.4459 247.255 85.939 247.255C86.7578 247.255 87.5445 247.142 88.2991 246.917C89.0537 246.693 89.74 246.359 90.3581 245.918C90.9843 245.468 91.5141 244.919 91.9476 244.268C92.3891 243.61 92.6981 242.856 92.8747 242.005H95.8609C95.6362 243.265 95.2268 244.393 94.6327 245.388C94.0387 246.384 93.3002 247.23 92.4172 247.929C91.5341 248.619 90.5428 249.145 89.443 249.506C88.3513 249.867 87.1833 250.048 85.939 250.048C83.8359 250.048 81.9655 249.534 80.3279 248.507C78.6903 247.479 77.4019 246.018 76.4627 244.124C75.5235 242.229 75.0539 239.982 75.0539 237.381C75.0539 234.78 75.5235 232.532 76.4627 230.638C77.4019 228.743 78.6903 227.282 80.3279 226.255C81.9655 225.227 83.8359 224.714 85.939 224.714C87.1833 224.714 88.3513 224.894 89.443 225.255C90.5428 225.617 91.5341 226.146 92.4172 226.845C93.3002 227.535 94.0387 228.378 94.6327 229.373C95.2268 230.361 95.6362 231.489 95.8609 232.757ZM134.039 237.381C134.039 239.982 133.57 242.229 132.631 244.124C131.691 246.018 130.403 247.479 128.765 248.507C127.128 249.534 125.257 250.048 123.154 250.048C121.051 250.048 119.181 249.534 117.543 248.507C115.905 247.479 114.617 246.018 113.678 244.124C112.739 242.229 112.269 239.982 112.269 237.381C112.269 234.78 112.739 232.532 113.678 230.638C114.617 228.743 115.905 227.282 117.543 226.255C119.181 225.227 121.051 224.714 123.154 224.714C125.257 224.714 127.128 225.227 128.765 226.255C130.403 227.282 131.691 228.743 132.631 230.638C133.57 232.532 134.039 234.78 134.039 237.381ZM131.149 237.381C131.149 235.246 130.792 233.443 130.078 231.974C129.371 230.505 128.412 229.394 127.2 228.639C125.996 227.884 124.647 227.507 123.154 227.507C121.661 227.507 120.308 227.884 119.096 228.639C117.892 229.394 116.933 230.505 116.218 231.974C115.512 233.443 115.159 235.246 115.159 237.381C115.159 239.516 115.512 241.318 116.218 242.787C116.933 244.256 117.892 245.368 119.096 246.123C120.308 246.877 121.661 247.255 123.154 247.255C124.647 247.255 125.996 246.877 127.2 246.123C128.412 245.368 129.371 244.256 130.078 242.787C130.792 241.318 131.149 239.516 131.149 237.381ZM151.606 249.711V225.051H159.939C161.865 225.051 163.447 225.38 164.683 226.038C165.919 226.688 166.834 227.583 167.428 228.723C168.022 229.863 168.319 231.16 168.319 232.613C168.319 234.066 168.022 235.354 167.428 236.478C166.834 237.602 165.923 238.485 164.695 239.127C163.467 239.761 161.898 240.078 159.987 240.078H153.244V237.381H159.891C161.207 237.381 162.267 237.188 163.07 236.803C163.88 236.418 164.466 235.872 164.828 235.165C165.197 234.451 165.381 233.6 165.381 232.613C165.381 231.625 165.197 230.762 164.828 230.024C164.458 229.285 163.868 228.715 163.057 228.314C162.247 227.904 161.175 227.7 159.843 227.7H154.593V249.711H151.606ZM163.214 238.633L169.283 249.711H165.815L159.843 238.633H163.214Z" fill="#F4B5A4"/>
</svg>
